<?xml version="1.0" standalone="no"?>
<!DOCTYPE svg PUBLIC "-//W3C//DTD SVG 20010904//EN"
 "http://www.w3.org/TR/2001/REC-SVG-20010904/DTD/svg10.dtd">
<svg version="1.0" xmlns="http://www.w3.org/2000/svg"
 width="96.000000pt" height="96.000000pt" viewBox="0 0 96.000000 96.000000"
 preserveAspectRatio="xMidYMid meet">

<g transform="translate(0.000000,96.000000) scale(0.100000,-0.100000)"
fill="#000000" stroke="none">
<path d="M420 931 c0 -28 -4 -30 -52 -40 -113 -24 -215 -106 -270 -219 -30
-61 -33 -75 -33 -162 0 -87 3 -101 33 -162 55 -113 157 -195 270 -219 48 -10
52 -12 52 -40 0 -26 3 -29 30 -29 23 0 30 4 30 20 0 27 58 90 97 106 38 16
111 18 147 4 36 -13 59 10 46 46 -14 36 -12 109 4 147 12 29 42 60 108 110
l23 17 -23 18 c-66 49 -96 80 -108 109 -16 38 -18 111 -4 147 13 36 -10 59
-46 46 -36 -14 -109 -12 -147 4 -39 16 -97 79 -97 106 0 16 -7 20 -30 20 -27
0 -30 -3 -30 -29z m0 -422 l0 -331 -32 7 c-60 12 -135 55 -178 101 -134 145
-115 360 42 487 34 27 124 66 156 67 9 0 12 -73 12 -331z m226 251 l54 0 0
-52 c0 -64 28 -128 71 -168 l32 -29 -31 -30 c-44 -40 -72 -105 -72 -168 l0
-53 -57 0 c-44 0 -68 -6 -110 -30 l-54 -31 3 52 c3 48 5 53 33 62 104 33 165
147 135 255 -14 53 -81 124 -130 138 -34 9 -35 12 -38 62 l-3 51 57 -29 c42
-23 69 -30 110 -30z m-66 -180 c11 -21 20 -53 20 -70 0 -50 -35 -107 -80 -130
l-40 -20 0 150 0 150 40 -20 c26 -13 47 -34 60 -60z"/>
<path d="M244 646 c-10 -26 4 -48 28 -44 33 4 33 52 0 56 -13 2 -25 -3 -28
-12z"/>
<path d="M260 460 c-11 -11 -20 -29 -20 -40 0 -26 34 -60 60 -60 26 0 60 34
60 60 0 11 -9 29 -20 40 -11 11 -29 20 -40 20 -11 0 -29 -9 -40 -20z"/>
</g>
</svg>
