<?xml version="1.0" encoding="utf-8"?>
<svg width="35" height="35" viewBox="0 0 35 35" fill="none" xmlns="http://www.w3.org/2000/svg">
  <g>
    <path d="M11.6667 0C5.24061 0 0 5.24062 0 11.6667C0 18.0927 5.24061 23.3333 11.6667 23.3333C14.3559 23.3333 16.8306 22.4079 18.8074 20.8695C18.8074 20.8695 26.6772 28.7394 26.6772 28.7394C27.043 29.1204 27.5862 29.2738 28.0972 29.1406C28.6083 29.0074 29.0074 28.6083 29.1406 28.0972C29.2738 27.5862 29.1204 27.043 28.7394 26.6772C28.7394 26.6772 20.8695 18.8074 20.8695 18.8074C22.4079 16.8306 23.3333 14.3559 23.3333 11.6667C23.3333 5.24062 18.0927 0 11.6667 0C11.6667 0 11.6667 0 11.6667 0ZM11.6667 2.91667C16.5165 2.91667 20.4167 6.8169 20.4167 11.6667C20.4167 16.5164 16.5165 20.4167 11.6667 20.4167C6.81694 20.4167 2.91671 16.5164 2.91671 11.6667C2.91671 6.8169 6.81694 2.91667 11.6667 2.91667C11.6667 2.91667 11.6667 2.91667 11.6667 2.91667Z" fill="#000000" transform="translate(2.917 2.917)" />
  </g>
</svg>